<svg width="146" height="40" viewBox="0 0 146 40" fill="none" xmlns="http://www.w3.org/2000/svg">
<rect width="146" height="40" fill="#FAF5FE" fill-opacity="0.2"/>
<path d="M18.9922 13.0312L23.0391 24.5H20.4297L19.6016 21.7812H15.4375L14.6094 24.5H12L16.0312 13.0312H18.9922ZM16.8672 17.0938L16.0469 19.75H19.0234L18.1953 17.0938L17.9844 16.3984C17.9115 16.1536 17.8281 15.8776 17.7344 15.5703C17.6406 15.2578 17.5703 15.0026 17.5234 14.8047C17.4974 14.9089 17.4635 15.0286 17.4219 15.1641C17.3854 15.2943 17.3464 15.4375 17.3047 15.5938C17.2161 15.9115 17.1302 16.2109 17.0469 16.4922C16.9688 16.7734 16.9089 16.974 16.8672 17.0938ZM26.7344 24.6562C25.7656 24.6562 24.974 24.276 24.3594 23.5156C23.7448 22.7552 23.4375 21.6328 23.4375 20.1484C23.4375 18.6536 23.7474 17.5234 24.3672 16.7578C24.987 15.987 25.7969 15.6016 26.7969 15.6016C27.4271 15.6016 27.9453 15.7266 28.3516 15.9766C28.7578 16.2214 29.0781 16.5234 29.3125 16.8828H29.3906C29.3594 16.7109 29.3203 16.4635 29.2734 16.1406C29.2318 15.8125 29.2109 15.4792 29.2109 15.1406V12.3438H31.5938V24.5H29.7734L29.3125 23.3672H29.2109C28.9766 23.7266 28.6615 24.0312 28.2656 24.2812C27.875 24.5312 27.3646 24.6562 26.7344 24.6562ZM27.5625 22.7578C28.2135 22.7578 28.6719 22.5625 28.9375 22.1719C29.2083 21.7812 29.3542 21.1979 29.375 20.4219V20.1641C29.375 19.3203 29.2422 18.6719 28.9766 18.2188C28.7161 17.7656 28.2344 17.5391 27.5312 17.5391C27.0104 17.5391 26.599 17.7656 26.2969 18.2188C26 18.6719 25.8516 19.3255 25.8516 20.1797C25.8516 21.0339 26 21.6771 26.2969 22.1094C26.599 22.5417 27.0208 22.7578 27.5625 22.7578ZM36.8594 24.6562C35.8906 24.6562 35.099 24.276 34.4844 23.5156C33.8698 22.7552 33.5625 21.6328 33.5625 20.1484C33.5625 18.6536 33.8724 17.5234 34.4922 16.7578C35.112 15.987 35.9219 15.6016 36.9219 15.6016C37.5521 15.6016 38.0703 15.7266 38.4766 15.9766C38.8828 16.2214 39.2031 16.5234 39.4375 16.8828H39.5156C39.4844 16.7109 39.4453 16.4635 39.3984 16.1406C39.3568 15.8125 39.3359 15.4792 39.3359 15.1406V12.3438H41.7188V24.5H39.8984L39.4375 23.3672H39.3359C39.1016 23.7266 38.7865 24.0312 38.3906 24.2812C38 24.5312 37.4896 24.6562 36.8594 24.6562ZM37.6875 22.7578C38.3385 22.7578 38.7969 22.5625 39.0625 22.1719C39.3333 21.7812 39.4792 21.1979 39.5 20.4219V20.1641C39.5 19.3203 39.3672 18.6719 39.1016 18.2188C38.8411 17.7656 38.3594 17.5391 37.6562 17.5391C37.1354 17.5391 36.724 17.7656 36.4219 18.2188C36.125 18.6719 35.9766 19.3255 35.9766 20.1797C35.9766 21.0339 36.125 21.6771 36.4219 22.1094C36.724 22.5417 37.1458 22.7578 37.6875 22.7578ZM51.9531 15.5859C53.1302 15.5859 54.0286 15.8411 54.6484 16.3516C55.2734 16.8568 55.5859 17.6328 55.5859 18.6797V24.5H53.9219L53.4609 23.3125H53.3984C53.0234 23.7865 52.6276 24.1302 52.2109 24.3438C51.7943 24.5521 51.224 24.6562 50.5 24.6562C49.724 24.6562 49.0781 24.4323 48.5625 23.9844C48.0521 23.5365 47.7969 22.8385 47.7969 21.8906C47.7969 20.9635 48.1224 20.2812 48.7734 19.8438C49.4245 19.4062 50.401 19.1615 51.7031 19.1094L53.2188 19.0625V18.6797C53.2188 18.2161 53.099 17.8802 52.8594 17.6719C52.6198 17.4583 52.2865 17.3516 51.8594 17.3516C51.4323 17.3516 51.0156 17.4141 50.6094 17.5391C50.2083 17.6589 49.8047 17.8073 49.3984 17.9844L48.6094 16.375C49.0729 16.1406 49.5911 15.9505 50.1641 15.8047C50.7422 15.6589 51.3385 15.5859 51.9531 15.5859ZM53.2188 21.1719V20.4531L52.2891 20.4844C51.5234 20.5052 50.9896 20.6432 50.6875 20.8984C50.3906 21.1536 50.2422 21.4896 50.2422 21.9062C50.2422 22.2708 50.349 22.5312 50.5625 22.6875C50.776 22.8385 51.0547 22.9141 51.3984 22.9141C51.9089 22.9141 52.3385 22.763 52.6875 22.4609C53.0417 22.1589 53.2188 21.7292 53.2188 21.1719ZM62.9844 15.6016C63.9219 15.6016 64.6719 15.8568 65.2344 16.3672C65.8021 16.8724 66.0859 17.6849 66.0859 18.8047V24.5H63.7031V19.3984C63.7031 18.7682 63.5911 18.2969 63.3672 17.9844C63.1432 17.6667 62.7865 17.5078 62.2969 17.5078C61.5729 17.5078 61.0755 17.7552 60.8047 18.25C60.5391 18.7448 60.4062 19.4583 60.4062 20.3906V24.5H58.0234V15.7656H59.8438L60.1641 16.8828H60.2969C60.5729 16.4349 60.9531 16.1094 61.4375 15.9062C61.9219 15.7031 62.4375 15.6016 62.9844 15.6016ZM74.6406 21.9062C74.6406 22.7917 74.3281 23.4714 73.7031 23.9453C73.0781 24.4193 72.1484 24.6562 70.9141 24.6562C70.3047 24.6562 69.7812 24.6172 69.3438 24.5391C68.9062 24.4609 68.4688 24.3307 68.0312 24.1484V22.1797C68.5 22.3932 69.0052 22.5703 69.5469 22.7109C70.0938 22.8464 70.5755 22.9141 70.9922 22.9141C71.4505 22.9141 71.7812 22.8464 71.9844 22.7109C72.1875 22.5703 72.2891 22.388 72.2891 22.1641C72.2891 22.0078 72.25 21.8724 72.1719 21.7578C72.0781 21.6224 71.8672 21.4714 71.5391 21.3047C71.2161 21.138 70.8359 20.9661 70.3984 20.7891C69.862 20.5599 69.4141 20.3281 69.0547 20.0938C68.7057 19.8646 68.4453 19.5885 68.2734 19.2656C68.1016 18.9375 68.0156 18.5286 68.0156 18.0391C68.0156 17.2266 68.3307 16.6172 68.9609 16.2109C69.5911 15.8047 70.4271 15.6016 71.4688 15.6016C72.0156 15.6016 72.5339 15.6562 73.0234 15.7656C73.513 15.8698 74.0208 16.0443 74.5469 16.2891L73.8203 18.0078C73.3984 17.8255 72.9948 17.6745 72.6094 17.5547C72.224 17.4297 71.8333 17.3672 71.4375 17.3672C70.7344 17.3672 70.3828 17.5573 70.3828 17.9375C70.3828 18.0781 70.4297 18.2031 70.5234 18.3125C70.6172 18.4323 70.8229 18.5677 71.1406 18.7188C71.4583 18.8646 71.8151 19.0208 72.2109 19.1875C72.7005 19.3854 73.1328 19.5964 73.5078 19.8203C73.8672 20.0391 74.1458 20.3151 74.3438 20.6484C74.5417 20.9766 74.6406 21.3958 74.6406 21.9062ZM88.7812 15.7656L86.2734 24.5H83.6797L83.0078 21.4453L82.5625 19.4844C82.4792 19.1354 82.3906 18.776 82.2969 18.4062C82.2083 18.0365 82.1458 17.763 82.1094 17.5859H82.0469C82.0156 17.7474 81.9583 18.0026 81.875 18.3516C81.7969 18.6953 81.7109 19.0729 81.6172 19.4844C81.5339 19.8333 81.4453 20.2031 81.3516 20.5938C81.2578 20.9844 81.1901 21.2786 81.1484 21.4766L80.4453 24.5H77.8828L75.4062 15.7656H77.7734L78.7812 19.6328C78.8177 19.7734 78.8516 19.9245 78.8828 20.0859C78.9193 20.2474 78.9531 20.4193 78.9844 20.6016C79.0365 20.9193 79.0859 21.2656 79.1328 21.6406C79.1849 22.0156 79.2292 22.3021 79.2656 22.5H79.3281C79.3385 22.3281 79.3672 22.0755 79.4141 21.7422C79.4661 21.4089 79.5208 21.0729 79.5781 20.7344C79.6354 20.3958 79.6849 20.1354 79.7266 19.9531L80.7969 15.7656H83.4219L84.4453 19.9531C84.4609 20.026 84.4792 20.1224 84.5 20.2422C84.526 20.362 84.5573 20.5052 84.5938 20.6719C84.6562 21.0052 84.7083 21.3438 84.75 21.6875C84.7917 22.026 84.8177 22.2969 84.8281 22.5H84.8906C84.9167 22.3177 84.9557 22.0521 85.0078 21.7031C85.0599 21.3594 85.1198 21 85.1875 20.625C85.2604 20.2448 85.3333 19.9141 85.4062 19.6328L86.4453 15.7656H88.7812ZM93.7969 15.6016C95.0052 15.6016 95.9609 15.9479 96.6641 16.6406C97.3672 17.3281 97.7188 18.3047 97.7188 19.5703V20.7266H92.0859C92.1068 21.3984 92.3073 21.9271 92.6875 22.3125C93.0677 22.6927 93.5938 22.8828 94.2656 22.8828C94.8177 22.8828 95.3255 22.8281 95.7891 22.7188C96.2526 22.6042 96.7318 22.4297 97.2266 22.1953V24.0391C96.7891 24.2526 96.3333 24.4089 95.8594 24.5078C95.3906 24.6068 94.8203 24.6562 94.1484 24.6562C93.2839 24.6562 92.513 24.4948 91.8359 24.1719C91.1589 23.849 90.6276 23.3594 90.2422 22.7031C89.862 22.0469 89.6719 21.2109 89.6719 20.1953C89.6719 19.1797 89.8464 18.3307 90.1953 17.6484C90.5391 16.9661 91.0208 16.4557 91.6406 16.1172C92.2604 15.7734 92.9792 15.6016 93.7969 15.6016ZM93.8125 17.2969C93.3438 17.2969 92.9609 17.4479 92.6641 17.75C92.3672 18.0469 92.1901 18.5104 92.1328 19.1406H95.4766C95.4661 18.6198 95.3255 18.1823 95.0547 17.8281C94.7839 17.474 94.3698 17.2969 93.8125 17.2969ZM104.531 15.6016C104.646 15.6016 104.784 15.6068 104.945 15.6172C105.107 15.6276 105.234 15.6458 105.328 15.6719L105.156 17.9062C105.068 17.8854 104.953 17.8672 104.812 17.8516C104.677 17.8359 104.555 17.8281 104.445 17.8281C104.044 17.8281 103.656 17.8984 103.281 18.0391C102.906 18.1849 102.604 18.4193 102.375 18.7422C102.146 19.0599 102.031 19.4974 102.031 20.0547V24.5H99.6484V15.7656H101.453L101.805 17.2344H101.922C102.177 16.7865 102.529 16.4036 102.977 16.0859C103.424 15.763 103.943 15.6016 104.531 15.6016Z" fill="#FEFDFF"/>
<mask id="mask0_110_1937" style="mask-type:alpha" maskUnits="userSpaceOnUse" x="110" y="8" width="24" height="24">
<rect x="110" y="8" width="24" height="24" fill="#914EA5"/>
</mask>
<g mask="url(#mask0_110_1937)">
<path d="M119.7 18.8V21.2C119.7 21.4267 119.777 21.6167 119.93 21.77C120.083 21.9233 120.273 22 120.5 22C120.727 22 120.917 21.9233 121.07 21.77C121.223 21.6167 121.3 21.4267 121.3 21.2V18.8H123.7C123.927 18.8 124.117 18.7233 124.27 18.57C124.423 18.4167 124.5 18.2267 124.5 18C124.5 17.7733 124.423 17.5833 124.27 17.43C124.117 17.2767 123.927 17.2 123.7 17.2H121.3V14.8C121.3 14.5733 121.223 14.3833 121.07 14.23C120.917 14.0767 120.727 14 120.5 14C120.273 14 120.083 14.0767 119.93 14.23C119.777 14.3833 119.7 14.5733 119.7 14.8V17.2H117.3C117.073 17.2 116.883 17.2767 116.73 17.43C116.577 17.5833 116.5 17.7733 116.5 18C116.5 18.2267 116.577 18.4167 116.73 18.57C116.883 18.7233 117.073 18.8 117.3 18.8H119.7ZM120.5 26C119.393 26 118.353 25.79 117.38 25.37C116.407 24.95 115.56 24.38 114.84 23.66C114.12 22.94 113.55 22.0933 113.13 21.12C112.71 20.1467 112.5 19.1067 112.5 18C112.5 16.8933 112.71 15.8533 113.13 14.88C113.55 13.9067 114.12 13.06 114.84 12.34C115.56 11.62 116.407 11.05 117.38 10.63C118.353 10.21 119.393 10 120.5 10C121.607 10 122.647 10.21 123.62 10.63C124.593 11.05 125.44 11.62 126.16 12.34C126.88 13.06 127.45 13.9067 127.87 14.88C128.29 15.8533 128.5 16.8933 128.5 18C128.5 19.1067 128.29 20.1467 127.87 21.12C127.45 22.0933 126.88 22.94 126.16 23.66C125.44 24.38 124.593 24.95 123.62 25.37C122.647 25.79 121.607 26 120.5 26ZM120.5 24.4C122.287 24.4 123.8 23.78 125.04 22.54C126.28 21.3 126.9 19.7867 126.9 18C126.9 16.2133 126.28 14.7 125.04 13.46C123.8 12.22 122.287 11.6 120.5 11.6C118.713 11.6 117.2 12.22 115.96 13.46C114.72 14.7 114.1 16.2133 114.1 18C114.1 19.7867 114.72 21.3 115.96 22.54C117.2 23.78 118.713 24.4 120.5 24.4Z" fill="#FEFDFF"/>
</g>
<line x1="12" y1="31.5" x2="129" y2="31.5" stroke="white"/>
</svg>
